<?xml version="1.0" encoding="utf-8"?>
<!-- Generator: Adobe Illustrator 27.9.0, SVG Export Plug-In . SVG Version: 6.00 Build 0)  -->
<svg version="1.1" id="visual" xmlns="http://www.w3.org/2000/svg" xmlns:xlink="http://www.w3.org/1999/xlink" x="0px" y="0px"
	 viewBox="0 0 900 600" style="enable-background:new 0 0 900 600;" xml:space="preserve">
<style type="text/css">
	.st0{fill:#FFFFFF;}
	.st1{fill:#FA7268;}
</style>
<rect y="1" class="st0" width="900" height="600"/>
<path class="st1" d="M0,0h75c75,0,225,0,375,0s300,0,375,0h75v397l-75,3.8c-75,3.9-225,11.5-375,5.7s-300-25.2-375-34.8L0,362V0z"/>
<path class="st0" d="M0,0h75c75,0,225,0,375,0s300,0,375,0h75v192l-75,6.7c-75,6.6-225,20-375,17s-300-22.4-375-32L0,174V0z"/>
</svg>
