<svg id="visual" viewBox="0 0 900 600" width="900" height="600" xmlns="http://www.w3.org/2000/svg" xmlns:xlink="http://www.w3.org/1999/xlink" version="1.1"><rect x="0" y="0" width="900" height="600" fill="#ffffff"></rect><path d="M0 253L75 233.7C150 214.3 300 175.7 450 165.3C600 155 750 173 825 182L900 191L900 601L825 601C750 601 600 601 450 601C300 601 150 601 75 601L0 601Z" fill="#fa7268"></path><path d="M0 428L75 411.2C150 394.3 300 360.7 450 361.3C600 362 750 397 825 414.5L900 432L900 601L825 601C750 601 600 601 450 601C300 601 150 601 75 601L0 601Z" fill="#ffffff"></path></svg>