<?xml version="1.0" encoding="utf-8"?>
<!-- Generator: Adobe Illustrator 27.9.0, SVG Export Plug-In . SVG Version: 6.00 Build 0)  -->
<svg version="1.1" id="visual" xmlns="http://www.w3.org/2000/svg" xmlns:xlink="http://www.w3.org/1999/xlink" x="0px" y="0px"
	 viewBox="0 0 900 600" style="enable-background:new 0 0 900 600;" xml:space="preserve">
<style type="text/css">
	.st0{fill:#FFFFFF;}
	.st1{fill:#FA7268;}
</style>
<rect x="-70.6" y="107.6" transform="matrix(0.9239 -0.3827 0.3827 0.9239 -85.2006 196.8936)" class="st0" width="1045.9" height="410"/>
<path class="st1" d="M-70.2,415.3l44.1-7.5c44.1-7.5,132.2-22.6,217.7-43.8c85.5-21.3,168.5-48.7,246.4-88.5s150.6-91.8,229.1-130
	S829.8,83,872,70.8l42.1-12.1l102.8,248.1l-40.3,16.7c-40.3,16.7-120.8,50-201.3,83.4s-161,66.7-241.6,100.1s-161,66.7-241.6,100.1
	c-80.5,33.4-161,66.7-201.3,83.4L50.6,707L-70.2,415.3z"/>
<path class="st0" d="M-14.8,549.2L29,541c43.8-8.2,131.4-24.5,217-45.5s169.3-46.8,247.9-84.8c78.6-38,152.2-88.2,231.1-125.2
	c79-37,163.5-60.9,205.7-72.8l42.2-11.9l43.9,106.1l-40.3,16.7c-40.3,16.7-120.8,50-201.3,83.4s-161,66.7-241.6,100.1
	s-161,66.7-241.6,100.1c-80.5,33.4-161,66.7-201.3,83.4L50.6,707L-14.8,549.2z"/>
</svg>
