<?xml version="1.0" encoding="utf-8"?>
<!-- Generator: Adobe Illustrator 27.9.0, SVG Export Plug-In . SVG Version: 6.00 Build 0)  -->
<svg version="1.1" id="visual" xmlns="http://www.w3.org/2000/svg" xmlns:xlink="http://www.w3.org/1999/xlink" x="0px" y="0px"
	 viewBox="0 0 900 600" style="enable-background:new 0 0 900 600;" xml:space="preserve">
<style type="text/css">
	.st0{fill:#FFFFFF;}
	.st1{fill:#FA7268;}
</style>
<rect x="248.9" y="-164" transform="matrix(0.1585 -0.9874 0.9874 0.1585 68.7201 715.0632)" class="st0" width="410" height="962.4"/>
<path class="st1" d="M-3.8,132.3l38,16.1c38,16.1,114.1,48.4,191.2,74.1c77.1,25.6,155.3,44.7,235.6,50.5s162.7-1.4,242.7,6.1
	s157.7,29.9,196.5,41.1l38.8,11.2l-42.6,265.2l-39.6-6.4c-39.6-6.4-118.8-19.1-198-31.8c-79.2-12.7-158.4-25.4-237.6-38.1
	c-79.2-12.7-158.4-25.4-237.6-38.1c-79.2-12.7-158.4-25.4-198-31.8l-39.6-6.4L-3.8,132.3z"/>
<path class="st0" d="M-26.8,275.3l38.1,15.5c38.1,15.5,114.4,46.4,191.5,72.3s155,46.7,234.9,54.5c80,7.7,162.1,2.5,241.9,11.2
	c79.8,8.8,157.4,31.6,196.2,43.1l38.8,11.4l-18.2,113.4l-39.6-6.4c-39.6-6.4-118.8-19.1-198-31.8c-79.2-12.7-158.4-25.4-237.6-38.1
	c-79.2-12.7-158.4-25.4-237.6-38.1c-79.2-12.7-158.4-25.4-198-31.8l-39.6-6.4L-26.8,275.3z"/>
</svg>
