<svg id="visual" viewBox="0 0 1920 1080" width="1920" height="1080" xmlns="http://www.w3.org/2000/svg" xmlns:xlink="http://www.w3.org/1999/xlink" version="1.1"><rect x="0" y="0" width="1920" height="1080" fill="#ffffff"></rect><path d="M0 808L160 791.7C320 775.3 640 742.7 960 724.7C1280 706.7 1600 703.3 1760 701.7L1920 700L1920 0L1760 0C1600 0 1280 0 960 0C640 0 320 0 160 0L0 0Z" fill="#f7770f"></path><path d="M0 156L160 179.5C320 203 640 250 960 257.3C1280 264.7 1600 232.3 1760 216.2L1920 200L1920 0L1760 0C1600 0 1280 0 960 0C640 0 320 0 160 0L0 0Z" fill="#ffffff"></path></svg>