<svg id="visual" viewBox="0 0 900 600" width="900" height="600" xmlns="http://www.w3.org/2000/svg" xmlns:xlink="http://www.w3.org/1999/xlink" version="1.1"><rect x="0" y="0" width="900" height="600" fill="#ffffff"></rect><path d="M0 214L37.5 229.5C75 245 150 276 225 290.2C300 304.3 375 301.7 450 284.8C525 268 600 237 675 237C750 237 825 268 862.5 283.5L900 299L900 601L862.5 601C825 601 750 601 675 601C600 601 525 601 450 601C375 601 300 601 225 601C150 601 75 601 37.5 601L0 601Z" fill="#fa7268"></path><path d="M0 508L37.5 496.3C75 484.7 150 461.3 225 422.5C300 383.7 375 329.3 450 306.5C525 283.7 600 292.3 675 323.7C750 355 825 409 862.5 436L900 463L900 601L862.5 601C825 601 750 601 675 601C600 601 525 601 450 601C375 601 300 601 225 601C150 601 75 601 37.5 601L0 601Z" fill="#ffffff"></path></svg>