<svg id="visual" viewBox="0 0 900 600" width="900" height="600" xmlns="http://www.w3.org/2000/svg" xmlns:xlink="http://www.w3.org/1999/xlink" version="1.1"><rect x="0" y="0" width="900" height="600" fill="#ffffff"></rect><path d="M0 239L75 229.3C150 219.7 300 200.3 450 194.5C600 188.7 750 196.3 825 200.2L900 204L900 601L825 601C750 601 600 601 450 601C300 601 150 601 75 601L0 601Z" fill="#fa7268"></path><path d="M0 427L75 417.3C150 407.7 300 388.3 450 385.3C600 382.3 750 395.7 825 402.3L900 409L900 601L825 601C750 601 600 601 450 601C300 601 150 601 75 601L0 601Z" fill="#ffffff"></path></svg>