<svg id="visual" viewBox="0 0 900 600" width="900" height="600" xmlns="http://www.w3.org/2000/svg" xmlns:xlink="http://www.w3.org/1999/xlink" version="1.1"><rect x="0" y="0" width="900" height="600" fill="#ffffff"></rect><path d="M0 139L37.5 153.5C75 168 150 197 225 216.2C300 235.3 375 244.7 450 234.5C525 224.3 600 194.7 675 187C750 179.3 825 193.7 862.5 200.8L900 208L900 601L862.5 601C825 601 750 601 675 601C600 601 525 601 450 601C375 601 300 601 225 601C150 601 75 601 37.5 601L0 601Z" fill="#fa7268"></path><path d="M0 351L37.5 364.5C75 378 150 405 225 424.5C300 444 375 456 450 448.7C525 441.3 600 414.7 675 408.8C750 403 825 418 862.5 425.5L900 433L900 601L862.5 601C825 601 750 601 675 601C600 601 525 601 450 601C375 601 300 601 225 601C150 601 75 601 37.5 601L0 601Z" fill="#ffffff"></path></svg>